<svg xmlns="http://www.w3.org/2000/svg" viewBox="0 0 760 820" role="img" aria-labelledby="title desc">
  <title id="title">Original navy and cobalt football shirt</title>
  <desc id="desc">A brand-neutral football jersey illustration created for JerseySee.</desc>
  <defs>
    <linearGradient id="shirt" x1="0" y1="0" x2="1" y2="1"><stop stop-color="#1646c8"/><stop offset=".55" stop-color="#0b2f8d"/><stop offset="1" stop-color="#07142c"/></linearGradient>
    <linearGradient id="red" x1="0" y1="0" x2="1" y2="0"><stop stop-color="#8e1830"/><stop offset="1" stop-color="#c22746"/></linearGradient>
    <filter id="shadow" x="-30%" y="-30%" width="160%" height="180%"><feDropShadow dx="0" dy="28" stdDeviation="25" flood-color="#020817" flood-opacity=".5"/></filter>
  </defs>
  <g filter="url(#shadow)" transform="translate(52 30)">
    <path fill="url(#shirt)" d="M219 75 94 142 8 303l126 66 45-74v405c0 36 25 60 59 60h284c34 0 59-24 59-60V295l45 74 126-66-86-161-125-67c-27 46-79 69-161 69S246 121 219 75Z"/>
    <path fill="url(#red)" d="M272 111c28 22 64 33 108 33s80-11 108-33l20 11c-29 43-72 64-128 64s-99-21-128-64l20-11Z"/>
    <path fill="#f7f3ea" opacity=".96" d="M367 145h26v615h-26z"/>
    <path fill="#b99552" d="M179 324h402v17H179z" opacity=".95"/>
    <path fill="#fff" d="M310 277c19-28 42-42 70-42s51 14 70 42l-21 14c-13-19-29-29-49-29s-36 10-49 29l-21-14Z" opacity=".92"/>
    <text x="380" y="455" fill="#fff" font-family="Arial, sans-serif" font-size="52" font-weight="800" text-anchor="middle" letter-spacing="9">JERSEYSEE</text>
    <text x="380" y="540" fill="none" stroke="#f7f3ea" stroke-width="3" font-family="Arial, sans-serif" font-size="94" font-weight="900" text-anchor="middle">10</text>
  </g>
</svg>
